# xmcd CD database file
# Copyright (C) 1995-1998 Ti Kan
#
# Track frame offsets:
#	150
#	25291
#	52300
#	113156
#	128033
#	177180
#	210169
#	258728
#	305529
#
# Disc length: 4457 seconds
#
# Revision: 1
# Processed by: cddbd v1.4PL0 Copyright (c) Steve Scherf et al.
# Submitted via: CDex 1.30Release
#
DISCID=7d116709
DTITLE=John Mayall - Live - Archive Series
DYEAR=1971
DGENRE=Blues
TTITLE0=You must be crazy
TTITLE1=My pretty Girl
TTITLE2=Took the Car
TTITLE3=Blue Fox
TTITLE4=Devil's Tricks
TTITLE5=Don't bring me down
TTITLE6=Crying
TTITLE7=Won't have to worry
TTITLE8=Goodbye Stamp
EXTD=YEAR: 1971 ID3G:   0
EXTT0=
EXTT1=
EXTT2=
EXTT3=
EXTT4=
EXTT5=
EXTT6=
EXTT7=
EXTT8=
PLAYORDER=
